<svg xmlns="http://www.w3.org/2000/svg" version="1.1" xmlns:xlink="http://www.w3.org/1999/xlink" width="512" height="512" x="0" y="0" viewBox="0 0 24 24" style="enable-background:new 0 0 512 512" xml:space="preserve" class=""><g><path d="M19.091 19h-8.994c-1.297 0-2.447-.851-2.798-2.07L4.259 6.629C4.151 6.256 3.792 6 3.382 6H1a1 1 0 1 1 0-2h2.382c1.297 0 2.446.851 2.797 2.07L6.748 8h15.295c.624 0 1.216.297 1.583.795a1.89 1.89 0 0 1 .288 1.696l-2.063 6.548A2.902 2.902 0 0 1 19.091 19zm2.953-9h.01zM11 24c-1.103 0-2-.897-2-2s.897-2 2-2 2 .897 2 2-.897 2-2 2zm0-2.001V22zM18 24c-1.103 0-2-.897-2-2s.897-2 2-2 2 .897 2 2-.897 2-2 2zm0-2.001V22z" fill="#000000" opacity="1" data-original="#000000"></path></g></svg>