<svg xml:space="preserve" style="max-height: 500px" viewBox="111.1178645066274 58.672639999999994 260.5911340206186 172.06879999999998" y="0px" x="0px" xmlns:xlink="http://www.w3.org/1999/xlink" xmlns="http://www.w3.org/2000/svg" id="Layer_1" version="1.0" width="260.5911340206186" height="172.06879999999998">
<style type="text/css">
	.st0{fill:#ED1B33;}
</style>
<path d="M240.55,142.65v15.17c0,1.06-0.86,1.92-1.92,1.92h0h-5.51c-1.05,0.01-1.91-0.85-1.92-1.9c0-0.01,0-0.01,0-0.02&#10;&#9;v-47.55c-0.01-1.06,0.85-1.92,1.91-1.93c0,0,0.01,0,0.01,0h5.71c0.95,0.01,1.72,0.78,1.72,1.73L240.55,142.65L240.55,142.65z" class="st0"/>
<path d="M319.95,157.8c0,1.06-0.86,1.92-1.92,1.92h0h-5.51c-1.05,0.01-1.91-0.85-1.92-1.9c0-0.01,0-0.01,0-0.02v-47.53&#10;&#9;c-0.01-1.06,0.85-1.92,1.91-1.93c0,0,0.01,0,0.01,0h5.71c0.95,0.01,1.72,0.78,1.72,1.73L319.95,157.8z" class="st0"/>
<path d="M87.43,139.65c-12.33,13.46-33.24,14.37-46.69,2.05c-0.71-0.65-1.39-1.33-2.05-2.05&#10;&#9;c-0.62-0.68-0.59-1.73,0.07-2.37l4.23-4.24c0.67-0.67,1.76-0.67,2.43,0c0.03,0.03,0.05,0.05,0.08,0.08&#10;&#9;c8.56,9.64,23.31,10.51,32.95,1.95c0.73-0.64,1.41-1.33,2.05-2.06c0.62-0.72,1.7-0.8,2.41-0.18c0.03,0.03,0.07,0.06,0.1,0.09&#10;&#9;l4.32,4.32c0.65,0.65,0.68,1.69,0.07,2.38 M73.98,98.98H25.35c-2.4,0-4.35,1.95-4.35,4.35l0,0v75.39c0,2.4,1.94,4.34,4.34,4.34&#10;&#9;h48.64c17.12,0,31-13.88,31-31c0-0.02,0-0.03,0-0.05v-22c0-17.12-13.88-31-31-31" class="st0"/>
<path d="M147.12,150.38h-14.68c-2.21,0-4-1.79-4-4V135.7c0-2.21,1.79-4,4-4h14.69L147.12,150.38z M154.74,108.38h-5.9&#10;&#9;c-0.95,0-1.72,0.77-1.72,1.72c0,0,0,0.01,0,0.01v12.24h-15.15c-0.85,0-1.7,0.09-2.54,0.25c-6.06,1.47-10.34,6.9-10.34,13.14v10.46&#10;&#9;c0,7.47,6.05,13.52,13.52,13.52h9.08c0.36,0,0.71-0.12,1-0.33l0.2-0.17l0,0l4.21-4.22v3c0.01,0.95,0.78,1.72,1.73,1.72h5.75&#10;&#9;c0.83,0,1.56-0.53,1.83-1.31c0.01-0.1,0.01-0.19,0-0.29v-48.05c0.01-0.95-0.76-1.72-1.71-1.73c0,0-0.01,0-0.01,0" class="st0"/>
<path d="M296.59,150.44h-14.73c-2.21,0-4-1.79-4-4v-10.79c0-2.21,1.79-4,4-4h14.73V150.44z M304.21,122.35h-22.77&#10;&#9;c-0.85,0-1.7,0.09-2.54,0.25c-6.06,1.47-10.34,6.9-10.34,13.14v10.46c0,7.47,6.05,13.52,13.52,13.52h9.13c0.45,0,0.89-0.18,1.21-0.5&#10;&#9;l4.27-4.21v2.77c0,1.07,0.87,1.94,1.94,1.94l0,0h5.44c0.83,0,1.56-0.53,1.83-1.31c0.02-0.09,0.02-0.19,0-0.28v-34.05&#10;&#9;c0-0.95-0.77-1.72-1.72-1.73" class="st0"/>
<path d="M352.65,150.44h-14.73c-2.21,0-4-1.79-4-4v-10.79c0-2.21,1.79-4,4-4h14.74L352.65,150.44z M360.3,122.35h-22.81&#10;&#9;c-7.1-0.01-12.87,5.74-12.88,12.84c0,0.18,0,0.37,0.01,0.55v10.46c0,7.47,6.05,13.52,13.52,13.52h9.16c0.45,0,0.89-0.18,1.21-0.5&#10;&#9;l4.26-4.21v2.77c0.03,1.06,0.89,1.91,1.95,1.94h5.44c0.83,0,1.56-0.53,1.83-1.31c0.01-0.09,0.01-0.19,0-0.28v-34.05&#10;&#9;C361.99,123.14,361.24,122.37,360.3,122.35" class="st0"/>
<path d="M203.17,150.38h-14.69c-2.21,0-4-1.79-4-4V135.7c0-2.21,1.79-4,4-4h14.68L203.17,150.38z M212.48,123.65&#10;&#9;c-0.27-0.78-1-1.31-1.83-1.31h-5.75c-0.95-0.01-1.72,0.76-1.73,1.71c0,0.01,0,0.01,0,0.02v2.92l0,0l-4.1-4.11&#10;&#9;c-0.34-0.3-0.77-0.48-1.22-0.5h-9.16c-7.46,0-13.51,6.05-13.51,13.51c0,0,0,0.01,0,0.01v10.46c0,6.24,4.27,11.67,10.33,13.14&#10;&#9;c0.84,0.16,1.69,0.25,2.54,0.25h15.15v0.23c0.05,2.41-1.87,4.41-4.28,4.46c-0.05,0-0.11,0-0.16,0h-11.5&#10;&#9;c-1.5-0.04-2.75,1.14-2.79,2.64c-0.02,0.75,0.27,1.47,0.79,2l3.69,3.76c0.52,0.54,1.25,0.84,2,0.82h7.84c1.6,0,3.19-0.28,4.69-0.82&#10;&#9;c5.49-2.03,9.11-7.28,9.06-13.13v-35.73c0.01-0.1,0.01-0.19,0-0.29" class="st0"/>
<path d="M170.48,124.08V158c-0.01,0.95-0.78,1.72-1.73,1.72h-5.89c-0.95,0.01-1.72-0.76-1.73-1.71c0,0,0-0.01,0-0.01&#10;&#9;v-33.92c0-0.96,0.77-1.73,1.73-1.73l0,0h5.89C169.7,122.36,170.47,123.13,170.48,124.08" class="st0"/>
<path d="M170.48,110.07v5.89c-0.01,0.95-0.78,1.72-1.73,1.72h-5.89c-0.95,0.01-1.72-0.76-1.73-1.71c0,0,0-0.01,0-0.01&#10;&#9;v-5.89c-0.01-0.95,0.76-1.72,1.71-1.73c0.01,0,0.01,0,0.02,0h5.89C169.71,108.34,170.48,109.11,170.48,110.07L170.48,110.07" class="st0"/>
<path d="M226.53,124.08V158c-0.01,0.95-0.78,1.72-1.73,1.72h-5.89c-0.95,0-1.72-0.77-1.73-1.72v-33.92&#10;&#9;c0.01-0.95,0.78-1.72,1.73-1.73h5.89C225.75,122.36,226.52,123.13,226.53,124.08" class="st0"/>
<path d="M226.53,110.07v5.89c-0.02,0.94-0.79,1.69-1.73,1.69h-5.89c-0.95,0-1.72-0.77-1.73-1.72v-5.89&#10;&#9;c0-0.96,0.77-1.73,1.73-1.73c0,0,0,0,0,0h5.89c0.96,0,1.73,0.77,1.73,1.73c0,0,0,0,0,0" class="st0"/>
<path d="M240.55,140.07c1.88-2,13.4-13.39,16.8-17.05c0.38-0.4,0.91-0.64,1.47-0.64h7.74c1.1,0.02,1.99,0.93,1.97,2.03&#10;&#9;c-0.01,0.47-0.18,0.93-0.5,1.29c-4.76,4.76-15.5,15.35-15.5,15.35l15.51,15.66c0.68,0.69,0.68,1.8-0.01,2.49&#10;&#9;c-0.33,0.33-0.78,0.51-1.25,0.51h-8.09c-0.55,0-1.08-0.23-1.46-0.63c-3.43-3.68-14.87-15-16.68-16.92V140.07z" class="st0"/>
</svg>