<svg xmlns="http://www.w3.org/2000/svg" version="1.1" xmlns:xlink="http://www.w3.org/1999/xlink" width="512" height="512" x="0" y="0" viewBox="0 0 224.993 224.993" style="enable-background:new 0 0 512 512" xml:space="preserve" class=""><g><path d="M201.539 91.023 48.002 3.26A24.772 24.772 0 0 0 35.728 0a24.763 24.763 0 0 0-12.412 3.34c-7.6 4.409-12.321 12.606-12.321 21.393V200.26c0 8.786 4.721 16.983 12.319 21.392a24.748 24.748 0 0 0 12.413 3.342c4.296 0 8.541-1.128 12.274-3.261l153.535-87.764c7.686-4.394 12.46-12.621 12.46-21.473s-4.772-17.079-12.457-21.473zm-66.533-20.752-21.081 29.364L63.5 29.397l71.506 40.874zM34.76 209.908c-1.371-.133-2.716-.533-3.917-1.23a9.763 9.763 0 0 1-4.848-8.418V24.732a9.762 9.762 0 0 1 4.849-8.418 9.746 9.746 0 0 1 3.902-1.25l69.946 97.432-69.932 97.412zm28.74-14.312 50.425-70.239 21.081 29.364L63.5 195.596zm130.594-74.651-45.996 26.292-24.941-34.741 24.941-34.741 45.996 26.292c3.024 1.729 4.903 4.966 4.903 8.449s-1.878 6.721-4.903 8.449z" fill="#000000" opacity="1" data-original="#000000" class=""></path></g></svg>