<svg xmlns="http://www.w3.org/2000/svg" version="1.1" xmlns:xlink="http://www.w3.org/1999/xlink" width="512" height="512" x="0" y="0" viewBox="0 0 210 210" style="enable-background:new 0 0 512 512" xml:space="preserve" class=""><g><path d="M190.32 90.03 36.784 2.266A17.206 17.206 0 0 0 28.243 0c-.06 0-.119.008-.178.008a17.338 17.338 0 0 0-2.639.236c-.111.019-.223.025-.334.046l.006.008a17.184 17.184 0 0 0-5.515 2.034 17.233 17.233 0 0 0-8.585 14.905v175.527a17.233 17.233 0 0 0 8.585 14.905 17.172 17.172 0 0 0 5.514 2.035l-.005.007c.1.019.201.025.3.041.329.056.659.102.99.137.166.018.331.036.497.049.389.031.777.049 1.167.054.066.001.131.009.197.009 2.947 0 5.894-.754 8.541-2.266L190.32 119.97a17.233 17.233 0 0 0 8.681-14.962v-.016a17.236 17.236 0 0 0-8.681-14.962zm-60.718-17.429-15.266 20.027-38.84-50.956 54.106 30.929zm53.274 34.346-107.38 61.381 67.234-88.206 40.145 22.947a2.24 2.24 0 0 1 1.127 1.938 2.243 2.243 0 0 1-1.126 1.94z" fill="#000000" opacity="1" data-original="#000000" class=""></path></g></svg>