<svg width="14" height="14" viewBox="0 0 14 14" fill="none" xmlns="http://www.w3.org/2000/svg">
<path fill-rule="evenodd" clip-rule="evenodd" d="M3.05701 1.742L3.82101 1L4.60101 1.75L3.82501 2.491L3.05701 1.742ZM6.28701 4.222C6.28701 4.844 6.12701 5.333 5.80901 5.689C5.60801 5.91 5.34701 6.079 5.02601 6.194C4.67682 6.30919 4.31063 6.3643 3.94301 6.357H3.38801C2.96701 6.357 2.58701 6.283 2.24901 6.134C1.88386 5.98037 1.57119 5.72398 1.34901 5.396C1.11214 5.02352 0.99072 4.58931 1.00001 4.148C1.00001 4.089 1.00101 4.031 1.00401 3.972C1.03401 3.422 1.20801 2.814 1.52901 2.145L2.62401 2.629C2.36701 3.161 2.22701 3.629 2.20501 4.032C2.20301 4.072 2.20101 4.112 2.20101 4.152C2.20101 4.404 2.25601 4.61 2.36701 4.77C2.48634 4.94364 2.66359 5.06913 2.86701 5.124C2.95201 5.152 3.04501 5.172 3.14501 5.184C3.22401 5.194 3.30501 5.198 3.38801 5.198H3.94301C4.40101 5.198 4.71201 5.117 4.87601 4.954C5.01601 4.815 5.08601 4.571 5.08601 4.223V2.02H6.28601V4.222H6.28701ZM11.72 7.406L11 6.706L11.709 6L12.444 6.707L11.72 7.406ZM8.86401 7.714C9.40601 7.714 9.83701 7.904 10.157 8.283C10.454 8.629 10.602 9.06 10.602 9.576V9.94H10.782V9.936H11.192C11.413 9.936 11.569 9.908 11.659 9.852C11.752 9.797 11.799 9.712 11.799 9.594V9.525C11.803 9.282 11.816 8.481 11.799 8.41L13 8.05V9.624C13.003 9.93559 12.9021 10.2393 12.713 10.487C12.407 10.892 11.909 11.094 11.218 11.094H10.591C10.53 11.827 10.157 12.351 9.47401 12.667C9.20701 12.789 8.89401 12.877 8.53701 12.932C8.23456 12.9782 7.92896 13.0006 7.62301 12.999V11.84C8.23501 11.84 8.69501 11.758 9.00301 11.593C9.25301 11.461 9.37901 11.295 9.37901 11.094H8.86401C8.42801 11.094 8.05701 10.981 7.75101 10.755C7.38401 10.482 7.20101 10.088 7.20101 9.575C7.20101 9.087 7.32301 8.674 7.56801 8.335C7.86401 7.92 8.29601 7.713 8.86401 7.713V7.714ZM9.39701 9.94V9.576C9.39701 9.359 9.34901 9.187 9.25401 9.06C9.20907 8.9995 9.15008 8.95086 9.08213 8.91828C9.01418 8.8857 8.93931 8.87016 8.86401 8.873C8.78788 8.87036 8.71222 8.88595 8.64333 8.91848C8.57445 8.95101 8.51434 8.99953 8.46801 9.06C8.37275 9.18975 8.32475 9.3482 8.33201 9.509C8.33185 9.53137 8.33285 9.55373 8.33501 9.576C8.34301 9.701 8.40101 9.796 8.51201 9.859C8.60501 9.913 8.72201 9.939 8.86401 9.939L9.39701 9.94ZM9.50001 6.707L10.22 7.407L10.944 6.707L10.209 6L9.50001 6.707ZM2.80601 11.595H2.83601C3.26901 11.585 3.58101 11.489 3.77301 11.305C3.79701 11.317 3.83801 11.34 3.89301 11.373L3.96701 11.412L4.04801 11.454C4.18301 11.527 4.30901 11.587 4.42701 11.634C4.77201 11.78 5.09701 11.854 5.40401 11.854C5.56427 11.8575 5.72365 11.8292 5.87296 11.7709C6.02226 11.7125 6.15856 11.6252 6.27401 11.514C6.57401 11.229 6.72301 10.8 6.72301 10.228C6.71945 9.82269 6.60348 9.42631 6.38801 9.083C6.08901 8.626 5.65601 8.398 5.08801 8.398C4.58601 8.398 4.17201 8.59 3.84601 8.973C3.73301 9.105 3.63601 9.257 3.55201 9.429C3.52001 9.491 3.49201 9.554 3.46801 9.62C3.45587 9.64512 3.44583 9.67121 3.43801 9.698C3.43029 9.71786 3.42296 9.73786 3.41601 9.758C3.31301 10.067 3.24501 10.243 3.21101 10.288C3.13901 10.378 2.99701 10.428 2.78401 10.435C2.66101 10.43 2.57501 10.405 2.52801 10.359C2.47101 10.305 2.44301 10.206 2.44301 10.062V7L1.24201 6.5V10.062C1.24201 10.323 1.29001 10.558 1.38501 10.765C1.45601 10.923 1.55301 11.061 1.67501 11.178C1.79801 11.296 1.94101 11.389 2.10501 11.458C2.30301 11.542 2.52501 11.588 2.77001 11.594V11.595H2.80601ZM5.55801 10.581C5.59974 10.4683 5.6148 10.3475 5.60201 10.228C5.59411 10.0586 5.53674 9.89518 5.43701 9.758C5.33701 9.624 5.22001 9.557 5.08701 9.557C4.90701 9.557 4.75701 9.66 4.64001 9.867C4.59801 9.938 4.56001 10.025 4.52601 10.129C4.51164 10.1686 4.4983 10.2087 4.48601 10.249L4.47101 10.302L4.45601 10.348C4.59801 10.466 4.77901 10.564 5.00001 10.641C5.18001 10.703 5.32501 10.733 5.43301 10.733C5.47701 10.733 5.51901 10.683 5.55801 10.581Z" fill="#1E1E1E"/>
</svg>
